<svg xmlns="http://www.w3.org/2000/svg" width="1200" height="630" viewBox="0 0 1200 630" role="img" aria-label="Panduan Membuat Artikel SEO Berkualitas"><defs><filter id="cardShadow"><feDropShadow dx="8" dy="10" stdDeviation="0" flood-color="#17214a" flood-opacity="1"/></filter><pattern id="tutDots" width="26" height="26" patternUnits="userSpaceOnUse"><circle cx="3" cy="3" r="2" fill="#17214a" opacity=".12"/></pattern></defs>
        <rect width="1200" height="630" fill="#ffd83d"/><rect width="1200" height="630" fill="url(#tutDots)"/><path d="M0 0h510l-94 630H0z" fill="#e72b78"/><text x="64" y="142" fill="#fff" font-family="Segoe UI,Arial,sans-serif" font-size="47" font-weight="800" letter-spacing="-1.6">Panduan Membuat</text><text x="64" y="195" fill="#fff" font-family="Segoe UI,Arial,sans-serif" font-size="47" font-weight="800" letter-spacing="-1.6">Artikel SEO</text><text x="64" y="248" fill="#fff" font-family="Segoe UI,Arial,sans-serif" font-size="47" font-weight="800" letter-spacing="-1.6">Berkualitas</text><rect x="64" y="492" width="254" height="12" rx="6" fill="#17214a"/>
        <g filter="url(#cardShadow)"><rect x="520" y="82" width="256" height="190" rx="14" fill="#fff" stroke="#17214a" stroke-width="4"/><circle cx="558" cy="119" r="23" fill="#e72b78"/><text x="558" y="127" text-anchor="middle" fill="#fff" font-family="Segoe UI,Arial,sans-serif" font-size="22" font-weight="900">1</text><rect x="600" y="104" width="136" height="15" rx="7" fill="#17214a"/><rect x="552" y="157" width="184" height="11" rx="5" fill="#d9ddea"/><rect x="552" y="184" width="140" height="11" rx="5" fill="#d9ddea"/><rect x="552" y="218" width="42" height="30" rx="6" fill="#ffd83d"/><path d="M563 233l8 8 15-18" fill="none" stroke="#17214a" stroke-width="5"/></g>
        <path d="M790 181h72l-20-20m20 20-20 20" fill="none" stroke="#17214a" stroke-width="7" stroke-linecap="round" stroke-linejoin="round"/>
        <g filter="url(#cardShadow)"><rect x="882" y="82" width="256" height="190" rx="14" fill="#fff" stroke="#17214a" stroke-width="4"/><circle cx="920" cy="119" r="23" fill="#f59e0b"/><text x="920" y="127" text-anchor="middle" fill="#17214a" font-family="Segoe UI,Arial,sans-serif" font-size="22" font-weight="900">2</text><rect x="962" y="104" width="136" height="15" rx="7" fill="#17214a"/><rect x="914" y="153" width="190" height="72" rx="7" fill="#f1f3f8"/><path d="M940 203l34-31 28 20 40-37 37 48" fill="none" stroke="#e72b78" stroke-width="6"/></g>
        <g filter="url(#cardShadow)"><rect x="700" y="351" width="306" height="192" rx="14" fill="#fff" stroke="#17214a" stroke-width="4"/><circle cx="740" cy="390" r="23" fill="#17214a"/><text x="740" y="398" text-anchor="middle" fill="#ffd83d" font-family="Segoe UI,Arial,sans-serif" font-size="22" font-weight="900">3</text><rect x="782" y="376" width="177" height="15" rx="7" fill="#17214a"/><g fill="none" stroke="#e72b78" stroke-width="4"><rect x="733" y="433" width="20" height="20" rx="3"/><path d="M738 442l6 6 12-17"/><rect x="733" y="473" width="20" height="20" rx="3"/></g><rect x="774" y="438" width="174" height="10" rx="5" fill="#d9ddea"/><rect x="774" y="478" width="130" height="10" rx="5" fill="#d9ddea"/></g></svg>